# xmcd CD database file
#
# Track frame offsets:
#	150
#	10426
#	24170
#	39648
#	58505
#	73858
#	86353
#	100276
#	118815
#	136411
#	160770
#	170661
#	187499
#	199431
#	215367
#	232556
#	246315
#
# Disc length: 3541 seconds
#
# Revision: 0
# Processed by: cddbd v1.5.2PL0 Copyright (c) Steve Scherf et al.
# Submitted via: CDex 1.70beta2
#
DISCID=f20dd311
DTITLE=Various Artist - 午後のボッサ～Cafe Beatles
DYEAR=2010
DGENRE=Jazz
TTITLE0=I’ll Follow The Sun
TTITLE1=Here，There And Everywhere
TTITLE2=Strawberry Fields Forever
TTITLE3=Hey Jude
TTITLE4=The Long And Winding Road
TTITLE5=She Loves You
TTITLE6=No Reply
TTITLE7=She’s Leaving Home
TTITLE8=Across The Universe
TTITLE9=Here Comes The Sun
TTITLE10=I Will
TTITLE11=Eight Days A Week
TTITLE12=If I Fell
TTITLE13=The Fool On The Hill
TTITLE14=I’ll Be Back
TTITLE15=Norwegian Wood
TTITLE16=All You Need Is Love
EXTD=YEAR: 2010
EXTT0=
EXTT1=
EXTT2=
EXTT3=
EXTT4=
EXTT5=
EXTT6=
EXTT7=
EXTT8=
EXTT9=
EXTT10=
EXTT11=
EXTT12=
EXTT13=
EXTT14=
EXTT15=
EXTT16=
PLAYORDER=
